<svg xmlns="http://www.w3.org/2000/svg" viewBox="0 0 64 64">
  <rect width="64" height="64" rx="12" fill="#0A1020" />
  <g transform="translate(2.4 3) scale(2.4)" fill="none" stroke="#5FB8E6" stroke-linecap="round" stroke-linejoin="round" stroke-width="1.6">
    <path d="M12 4.6C10.5 3 7.5 3 6.2 5C4 5.3 2.8 7.5 3.6 9.3C2.4 10.6 2.6 13 4 14C3.8 16 5.5 17.5 7.3 17.3C8.4 19 10.6 19.3 12 18C13.4 19.3 15.6 19 16.7 17.3C18.5 17.5 20.2 16 20 14C21.4 13 21.6 10.6 20.4 9.3C21.2 7.5 20 5.3 17.8 5C16.5 3 13.5 3 12 4.6Z" />
    <path d="M12 4.6C11 8.5 13 12.5 12 18" />
    <path d="M7.6 9.2 8.6 14.2M15.6 8.6 16.2 13.8M7.6 9.2 15.6 8.6" stroke="#F5F7FB" stroke-width="1.3" />
    <circle cx="7.6" cy="9.2" r="1.5" fill="#F5F7FB" stroke="none" />
    <circle cx="8.6" cy="14.2" r="1.5" fill="#F5F7FB" stroke="none" />
    <circle cx="16.2" cy="13.8" r="1.5" fill="#F5F7FB" stroke="none" />
    <circle cx="15.6" cy="8.6" r="2.2" fill="#E0A458" stroke="none" />
  </g>
</svg>
